<?xml version="1.0" standalone="no"?>
<!DOCTYPE svg PUBLIC "-//W3C//DTD SVG 20010904//EN"
 "http://www.w3.org/TR/2001/REC-SVG-20010904/DTD/svg10.dtd">
<svg version="1.0" xmlns="http://www.w3.org/2000/svg"
 width="700.000000pt" height="700.000000pt" viewBox="0 0 700.000000 700.000000"
 preserveAspectRatio="xMidYMid meet">
<metadata>
Created by potrace 1.14, written by Peter Selinger 2001-2017
</metadata>
<g transform="translate(0.000000,700.000000) scale(0.100000,-0.100000)"
fill="#000000" stroke="none">
<path d="M5812 6840 c-50 -30 -71 -74 -67 -134 3 -43 44 -182 75 -251 5 -11
19 -48 32 -82 12 -35 25 -63 28 -63 3 0 24 51 48 113 92 242 106 314 69 368
-43 65 -124 86 -185 49z"/>
<path d="M5790 6285 c-220 -54 -367 -214 -427 -464 -30 -126 -25 -353 12 -561
21 -122 91 -439 140 -640 20 -80 38 -152 39 -160 2 -8 14 -55 26 -105 12 -49
23 -97 25 -105 2 -8 16 -64 30 -124 15 -60 28 -116 31 -125 2 -9 8 -34 13 -56
6 -22 11 -43 11 -46 0 -4 -55 11 -121 32 -67 22 -131 41 -143 43 -11 3 -46 10
-76 16 -214 46 -276 47 -321 5 -69 -67 -192 -278 -250 -428 -11 -29 -24 -61
-29 -72 -43 -92 -173 -479 -280 -830 -34 -110 -65 -211 -70 -225 -9 -27 -102
-318 -106 -335 -2 -5 -30 -84 -63 -175 -33 -91 -61 -168 -61 -171 0 -4 24 -10
53 -14 28 -5 54 -9 57 -10 3 0 30 -5 60 -9 30 -4 64 -10 75 -12 11 -1 54 -6
95 -10 41 -3 78 -8 81 -10 9 -5 289 -17 404 -17 92 0 297 11 334 18 9 1 43 6
76 9 422 48 814 217 1053 454 108 107 166 185 239 317 21 39 81 185 89 215 2
8 12 48 23 88 10 40 19 75 20 77 0 3 3 20 6 38 12 74 15 95 22 162 18 185 4
399 -42 655 -19 104 -98 361 -150 486 -77 188 -133 290 -298 542 -131 203
-209 345 -233 430 l-17 56 36 31 c68 59 187 91 272 73 22 -4 70 -11 107 -14
79 -8 111 7 133 59 26 62 11 121 -69 282 -41 83 -80 168 -87 190 -66 215 -210
371 -396 431 -65 21 -253 26 -323 9z"/>
<path d="M4600 4000 c-205 -42 -395 -117 -571 -226 -192 -119 -312 -230 -514
-475 -46 -57 -140 -186 -249 -344 -256 -369 -377 -481 -561 -520 -121 -25
-217 -1 -475 118 -143 66 -217 87 -321 93 -101 5 -205 -31 -279 -97 -19 -17
-45 -38 -57 -46 -26 -17 -124 -24 -166 -12 -29 8 -138 21 -197 23 -173 6 -342
-110 -439 -300 -17 -34 -31 -67 -31 -73 0 -6 -3 -11 -7 -12 -5 0 -15 -2 -23
-4 -8 -2 -29 -6 -46 -9 -144 -27 -283 -96 -375 -187 -106 -105 -141 -193 -144
-363 -4 -186 35 -330 127 -473 42 -64 130 -161 187 -207 98 -77 259 -159 444
-226 l117 -43 36 -58 c86 -143 219 -237 371 -264 73 -12 461 -13 548 -1 369
53 633 140 890 294 187 111 380 286 514 465 72 97 283 408 390 577 30 47 70
108 88 136 52 80 181 443 336 944 25 80 64 206 87 280 137 442 267 775 378
963 18 32 32 60 30 62 -1 1 -41 -5 -88 -15z"/>
<path d="M5569 1446 c-4 -3 -23 -6 -159 -22 -25 -2 -55 -7 -67 -10 l-23 -4 0
-285 0 -285 140 0 140 0 0 305 c0 247 -3 305 -13 305 -8 0 -16 -2 -18 -4z"/>
<path d="M4760 1123 l0 -283 140 0 140 0 0 280 0 280 -107 1 c-60 1 -123 2
-140 3 l-33 2 0 -283z"/>
</g>
</svg>
