<svg xmlns="http://www.w3.org/2000/svg" x="0px" y="0px"
width="50" height="50"
viewBox="0 0 172 172"
style=" fill:#000000;">
<g fill="none" 
   fill-rule="nonzero" 
   stroke="none" 
   stroke-width="1" 
   stroke-linecap="butt" 
   stroke-linejoin="miter" 
   stroke-miterlimit="10" 
   stroke-dasharray="" 
   stroke-dashoffset="0" 
   font-family="none" 
   font-weight="none" 
   font-size="none" 
   text-anchor="none" 
   style="mix-blend-mode: normal">
   <path 
      d="M0,172v-172h172v172z" 
      fill="none">
   </path>
   <g 
      fill="#ffd233">
      <path 
         d="M144.48,3.44c-1.89888,0 -3.44,1.54112 -3.44,3.44c0,1.89888 3.44,10.32 3.44,10.32c0,0 3.44,-8.42112 3.44,-10.32c0,-1.89888 -1.54112,-3.44 -3.44,-3.44zM146.1664,17.18656c-5.11117,-0.13714 -9.81125,2.08593 -12.49015,6.7725c-3.17856,5.56592 -2.73722,12.59981 -1.61922,18.67141c2.08808,11.33824 5.20999,22.57043 7.80719,33.80203c-2.81736,-1.08016 -5.72222,-1.93752 -8.68062,-2.5464c-1.78192,-0.36464 -3.76352,-0.86425 -5.58328,-0.82641c-1.62368,0.0344 -1.87443,0.4164 -2.88235,1.71328c-3.30584,4.25184 -5.37193,9.48371 -7.22265,14.49235c-4.816,13.05136 -8.03396,26.64183 -13.12172,39.60031c22.2912,4.31376 55.55998,3.2989 64.19094,-22.5011c4.71968,-14.24848 0.99265,-31.52782 -6.10063,-44.42438c-3.04096,-5.52808 -7.35724,-10.48662 -9.6414,-16.42062c-0.78088,-2.03304 -0.41635,-2.41241 1.43781,-3.39969c1.44136,-0.76712 3.12567,-1.35778 4.78375,-1.18922c2.56624,0.26144 6.84173,2.17531 7.04125,-2.34485c0.13416,-3.01688 -2.88546,-6.26886 -3.75578,-9.12406c-1.8404,-6.03032 -5.24121,-11.02783 -11.95266,-12.07359c-0.74218,-0.11567 -1.4803,-0.18197 -2.21047,-0.20156zM115.37437,73.30828c-6.3296,0.8944 -13.0341,3.26585 -19.6389,8.11625c-6.2608,4.6096 -11.73067,12.52187 -15.75547,18.33547c-0.8944,1.3072 -1.72242,2.50798 -2.47922,3.57437c-8.944,12.3152 -14.89547,9.56858 -21.77547,6.36938c-4.7816,-2.236 -10.7621,-5.02643 -16.2661,0.16797c-1.4104,1.3416 -2.61574,1.30881 -5.67734,0.79281c-3.268,-0.5848 -7.74403,-1.34053 -11.87203,2.82187c-2.2016,2.2016 -3.29864,4.47388 -3.88344,6.22828c-6.192,0.7912 -14.58641,4.2992 -14.58641,13.7936c0,15.652 13.17493,20.32556 19.50453,22.56156c0.7568,0.2752 1.65335,0.5856 2.20375,0.8264c4.3688,8.2216 9.83706,8.22375 16.68266,8.22375c8.1528,0 28.45041,-1.85599 41.21281,-18.98719c3.9904,-5.3664 9.76423,-14.41521 12.55062,-18.85281c0,0 0.00591,-0.03279 0.04031,-0.06719c2.924,-7.3616 5.39919,-15.34401 7.80719,-23.15281c3.7496,-12.1776 7.1165,-23.14932 11.9325,-30.75172zM137.6,136.33015c-2.2016,0.4128 -4.5064,0.72079 -6.88,0.92719v14.10265h6.88zM116.96,137.46563v13.89437h6.88v-13.76c-0.5504,0.0344 -1.10241,0.0336 -1.65281,0.0336c-1.72,0 -3.47279,-0.03037 -5.22719,-0.16797z">
      </path>
   </g>
</g>
</svg>